<?xml version="1.0" encoding="UTF-8"?><svg xmlns="http://www.w3.org/2000/svg" viewBox="0 0 136.77 38.34"><defs><style>.d{fill:blue;}</style></defs><g id="a"/><g id="b"><g id="c"><g><path class="d" d="M10.84,18.53c-.04-.93-.33-1.62-.88-2.08-.55-.46-1.18-.69-1.9-.69-.85,0-1.51,.28-1.98,.83-.46,.55-.69,1.18-.69,1.9,0,.5,.12,.99,.37,1.47,.25,.48,.89,.92,1.92,1.31l3.2,1.28c2.03,.78,3.43,1.85,4.19,3.2,.77,1.35,1.15,2.83,1.15,4.43,0,1.14-.21,2.2-.61,3.18-.41,.98-.97,1.84-1.68,2.59-.71,.75-1.57,1.34-2.56,1.76-1,.43-2.08,.64-3.26,.64-2.21,0-4.06-.69-5.55-2.08-.75-.68-1.35-1.52-1.82-2.54-.46-1.01-.71-2.2-.75-3.55H5.13c.11,.75,.36,1.44,.77,2.08,.41,.64,1.13,.96,2.16,.96,.78,0,1.49-.26,2.11-.77,.62-.52,.93-1.24,.93-2.16,0-.75-.2-1.39-.59-1.92-.39-.53-1.1-1-2.14-1.39l-2.62-.96c-1.71-.64-3.05-1.59-4.03-2.86-.98-1.26-1.47-2.8-1.47-4.62,0-1.14,.21-2.2,.64-3.18,.43-.98,1.01-1.82,1.76-2.54,.71-.71,1.55-1.26,2.51-1.63,.96-.37,1.99-.56,3.1-.56s2.13,.2,3.07,.59c.94,.39,1.75,.94,2.43,1.66,.68,.71,1.21,1.56,1.6,2.54,.39,.98,.59,2.02,.59,3.12h-5.13Z"/><path class="d" d="M19.44,0h5.45V30.39c0,1.03,.19,1.74,.56,2.11s1.08,.61,2.11,.72v5.13c-1.25,0-2.37-.1-3.36-.29-1-.2-1.85-.58-2.56-1.15-.71-.53-1.26-1.29-1.63-2.27-.37-.98-.56-2.27-.56-3.87V0Z"/><path class="d" d="M29.69,5.45V0h5.45V5.45h-5.45Zm0,32.58V10.95h5.45v27.08h-5.45Z"/><path class="d" d="M50.47,38.02v-2.46c-.36,.39-.69,.76-1.01,1.09-.32,.34-.68,.63-1.07,.88-.39,.25-.84,.45-1.34,.59-.5,.14-1.09,.21-1.76,.21-2.28,0-3.86-.85-4.75-2.56-.32-.6-.55-1.35-.69-2.24-.14-.89-.21-2.08-.21-3.58v-10.31c0-1.96,.05-3.4,.16-4.33,.21-1.78,1.05-3.12,2.51-4.01,.68-.46,1.69-.69,3.04-.69,1.07,0,2.02,.24,2.86,.72,.84,.48,1.56,1.17,2.16,2.06h.11V0h5.45V38.02h-5.45Zm-5.39-8.81c0,1.1,.21,1.99,.64,2.67,.43,.68,1.1,1.01,2.03,1.01,.82,0,1.48-.31,1.98-.93,.5-.62,.75-1.43,.75-2.43v-10.52c0-.85-.26-1.56-.77-2.11-.52-.55-1.17-.83-1.95-.83-1.03,0-1.74,.32-2.11,.96s-.56,1.39-.56,2.24v9.93Z"/><path class="d" d="M76.15,26.54h-10.79v3.68c0,.85,.24,1.51,.72,1.98,.48,.46,1.13,.69,1.95,.69,1.03,0,1.72-.3,2.06-.91,.34-.6,.54-1.21,.61-1.82h5.45c0,2.39-.73,4.31-2.19,5.77-.71,.75-1.57,1.34-2.56,1.76-1,.43-2.12,.64-3.36,.64-1.71,0-3.16-.36-4.35-1.07-1.19-.71-2.11-1.66-2.75-2.83-.39-.71-.66-1.53-.8-2.46-.14-.93-.21-1.94-.21-3.04v-8.92c0-1.1,.07-2.12,.21-3.04,.14-.93,.41-1.74,.8-2.46,.64-1.17,1.56-2.12,2.75-2.83,1.19-.71,2.64-1.07,4.35-1.07,1.25,0,2.38,.21,3.39,.64,1.01,.43,1.88,1.01,2.59,1.76,1.42,1.6,2.14,3.61,2.14,6.03v7.48Zm-10.79-4.27h5.34v-3.1c0-1.03-.24-1.81-.72-2.32-.48-.52-1.13-.77-1.95-.77s-1.47,.26-1.95,.77c-.48,.52-.72,1.29-.72,2.32v3.1Z"/><path class="d" d="M80.16,38.02V0h5.45V13.4h.11c.6-.89,1.33-1.58,2.16-2.06,.84-.48,1.79-.72,2.86-.72,1.32,0,2.34,.23,3.07,.69,.73,.46,1.33,1.05,1.79,1.76,.36,.57,.59,1.32,.69,2.24,.11,.93,.16,2.37,.16,4.33v10.31c0,1.5-.07,2.69-.21,3.58-.14,.89-.37,1.64-.69,2.24-.93,1.71-2.51,2.56-4.75,2.56-1.35,0-2.39-.27-3.1-.8-.71-.53-1.41-1.19-2.08-1.98v2.46h-5.45Zm10.84-18.75c0-.85-.19-1.6-.56-2.24-.37-.64-1.08-.96-2.11-.96-.78,0-1.43,.28-1.95,.83-.52,.55-.77,1.26-.77,2.11v10.52c0,1,.25,1.81,.75,2.43,.5,.62,1.16,.93,1.98,.93,.93,0,1.6-.34,2.03-1.01,.43-.68,.64-1.57,.64-2.67v-9.93Z"/><path class="d" d="M100.45,20.03c0-1.1,.07-2.12,.21-3.04,.14-.93,.41-1.74,.8-2.46,.64-1.17,1.56-2.12,2.75-2.83,1.19-.71,2.64-1.07,4.35-1.07s3.16,.36,4.35,1.07c1.19,.71,2.11,1.66,2.75,2.83,.39,.71,.66,1.53,.8,2.46,.14,.93,.21,1.94,.21,3.04v8.92c0,1.1-.07,2.12-.21,3.04-.14,.93-.41,1.74-.8,2.46-.64,1.17-1.56,2.12-2.75,2.83-1.19,.71-2.64,1.07-4.35,1.07s-3.16-.36-4.35-1.07c-1.19-.71-2.11-1.66-2.75-2.83-.39-.71-.66-1.53-.8-2.46-.14-.93-.21-1.94-.21-3.04v-8.92Zm5.45,9.77c0,1.03,.24,1.81,.72,2.32,.48,.52,1.13,.77,1.95,.77s1.47-.26,1.95-.77c.48-.52,.72-1.29,.72-2.32v-10.63c0-1.03-.24-1.81-.72-2.32-.48-.52-1.13-.77-1.95-.77s-1.47,.26-1.95,.77c-.48,.52-.72,1.29-.72,2.32v10.63Z"/><path class="d" d="M117.86,38.02l6.68-13.83-6.36-13.24h5.77l3.36,7.69,3.36-7.69h5.77l-6.46,13.24,6.78,13.83h-5.77l-3.68-8.28-3.68,8.28h-5.77Z"/></g></g></g></svg>