<?xml version="1.0" encoding="UTF-8"?><svg xmlns="http://www.w3.org/2000/svg" viewBox="0 0 542.32 152.05"><defs><style>.d{fill:#00add5;}</style></defs><g id="a"/><g id="b"><g id="c"><g><path class="d" d="M42.99,73.48c-.14-3.67-1.31-6.42-3.49-8.26-2.19-1.83-4.7-2.75-7.52-2.75-3.39,0-6,1.1-7.84,3.28-1.84,2.19-2.75,4.7-2.75,7.52,0,1.98,.49,3.92,1.48,5.82,.99,1.91,3.53,3.64,7.62,5.19l12.71,5.08c8.05,3.11,13.59,7.34,16.62,12.71,3.03,5.37,4.55,11.22,4.55,17.58,0,4.52-.81,8.72-2.44,12.6-1.62,3.88-3.85,7.31-6.67,10.27-2.83,2.96-6.21,5.29-10.16,6.99-3.95,1.69-8.26,2.54-12.92,2.54-8.75,0-16.09-2.75-22.02-8.26-2.96-2.68-5.37-6.04-7.2-10.06-1.84-4.02-2.83-8.72-2.96-14.08H20.33c.42,2.96,1.45,5.72,3.07,8.26,1.62,2.54,4.48,3.81,8.58,3.81,3.1,0,5.89-1.02,8.36-3.07,2.47-2.04,3.71-4.9,3.71-8.58,0-2.96-.78-5.51-2.33-7.62-1.56-2.12-4.38-3.95-8.47-5.51l-10.38-3.81c-6.78-2.54-12.11-6.32-15.99-11.33-3.88-5.01-5.82-11.12-5.82-18.32,0-4.52,.85-8.72,2.54-12.6,1.69-3.88,4.02-7.23,6.99-10.06,2.82-2.82,6.14-4.98,9.95-6.46,3.81-1.48,7.9-2.22,12.28-2.22s8.43,.78,12.18,2.33c3.74,1.56,6.95,3.74,9.64,6.57,2.68,2.83,4.8,6.18,6.35,10.06,1.55,3.88,2.33,8.01,2.33,12.39h-20.33Z"/><path class="d" d="M77.08,0h21.6V120.5c0,4.1,.74,6.88,2.22,8.36s4.27,2.44,8.36,2.86v20.33c-4.94,0-9.39-.39-13.34-1.17-3.95-.77-7.34-2.29-10.16-4.55-2.83-2.12-4.98-5.12-6.46-9-1.48-3.88-2.22-9-2.22-15.35V0Z"/><path class="d" d="M117.74,21.6V0h21.6V21.6h-21.6Zm0,129.18V43.41h21.6v107.37h-21.6Z"/><path class="d" d="M200.11,150.78v-9.74c-1.41,1.55-2.75,3-4.02,4.34-1.27,1.34-2.68,2.51-4.24,3.49-1.56,.99-3.32,1.77-5.29,2.33-1.98,.56-4.31,.85-6.99,.85-9.04,0-15.32-3.39-18.85-10.17-1.27-2.4-2.19-5.36-2.75-8.89-.57-3.53-.85-8.26-.85-14.19v-40.87c0-7.76,.21-13.48,.64-17.15,.85-7.06,4.16-12.35,9.95-15.88,2.68-1.83,6.7-2.75,12.07-2.75,4.24,0,8.01,.95,11.33,2.86,3.32,1.91,6.17,4.62,8.58,8.15h.42V0h21.6V150.78h-21.6Zm-21.39-34.94c0,4.38,.85,7.91,2.54,10.59,1.69,2.68,4.37,4.02,8.05,4.02,3.25,0,5.86-1.23,7.84-3.71,1.98-2.47,2.96-5.68,2.96-9.64v-41.72c0-3.39-1.03-6.17-3.07-8.36-2.05-2.19-4.63-3.28-7.73-3.28-4.1,0-6.88,1.27-8.36,3.81s-2.22,5.51-2.22,8.89v39.39Z"/><path class="d" d="M301.97,105.25h-42.78v14.61c0,3.39,.95,6,2.86,7.84,1.91,1.84,4.48,2.75,7.73,2.75,4.09,0,6.81-1.2,8.15-3.6,1.34-2.4,2.15-4.8,2.44-7.2h21.6c0,9.46-2.9,17.08-8.68,22.87-2.83,2.96-6.21,5.29-10.17,6.99-3.95,1.69-8.4,2.54-13.34,2.54-6.78,0-12.53-1.41-17.26-4.24-4.73-2.82-8.36-6.56-10.91-11.22-1.56-2.82-2.61-6.07-3.18-9.74-.57-3.67-.85-7.69-.85-12.07v-35.37c0-4.37,.28-8.4,.85-12.07,.56-3.67,1.62-6.92,3.18-9.74,2.54-4.66,6.17-8.4,10.91-11.22,4.73-2.82,10.48-4.24,17.26-4.24,4.94,0,9.42,.85,13.45,2.54,4.02,1.69,7.44,4.02,10.27,6.99,5.64,6.35,8.47,14.33,8.47,23.93v29.65Zm-42.78-16.94h21.18v-12.28c0-4.09-.95-7.16-2.86-9.21-1.91-2.04-4.48-3.07-7.73-3.07s-5.82,1.03-7.73,3.07c-1.91,2.05-2.86,5.12-2.86,9.21v12.28Z"/><path class="d" d="M317.85,150.78V0h21.6V53.15h.42c2.4-3.53,5.26-6.25,8.58-8.15,3.32-1.91,7.09-2.86,11.33-2.86,5.22,0,9.28,.92,12.18,2.75,2.89,1.84,5.26,4.17,7.09,6.99,1.41,2.26,2.33,5.22,2.75,8.89,.42,3.67,.64,9.39,.64,17.15v40.87c0,5.93-.28,10.66-.85,14.19-.57,3.53-1.48,6.5-2.75,8.89-3.67,6.78-9.95,10.17-18.85,10.17-5.37,0-9.46-1.06-12.28-3.18-2.83-2.12-5.58-4.73-8.26-7.83v9.74h-21.6Zm42.99-74.33c0-3.39-.74-6.35-2.22-8.89-1.48-2.54-4.27-3.81-8.36-3.81-3.11,0-5.68,1.09-7.73,3.28-2.05,2.19-3.07,4.98-3.07,8.36v41.72c0,3.95,.99,7.17,2.96,9.64,1.98,2.47,4.59,3.71,7.84,3.71,3.67,0,6.35-1.34,8.05-4.02,1.69-2.68,2.54-6.21,2.54-10.59v-39.39Z"/><path class="d" d="M398.32,79.41c0-4.37,.28-8.4,.85-12.07,.56-3.67,1.62-6.92,3.18-9.74,2.54-4.66,6.17-8.4,10.91-11.22,4.73-2.82,10.48-4.24,17.26-4.24s12.53,1.41,17.26,4.24c4.73,2.83,8.36,6.56,10.91,11.22,1.55,2.83,2.61,6.07,3.18,9.74,.56,3.67,.85,7.7,.85,12.07v35.37c0,4.38-.28,8.4-.85,12.07-.57,3.67-1.62,6.92-3.18,9.74-2.54,4.66-6.18,8.4-10.91,11.22-4.73,2.83-10.48,4.24-17.26,4.24s-12.53-1.41-17.26-4.24c-4.73-2.82-8.36-6.56-10.91-11.22-1.56-2.82-2.61-6.07-3.18-9.74-.57-3.67-.85-7.69-.85-12.07v-35.37Zm21.6,38.75c0,4.1,.95,7.17,2.86,9.21,1.91,2.05,4.48,3.07,7.73,3.07s5.82-1.02,7.73-3.07c1.91-2.04,2.86-5.12,2.86-9.21v-42.14c0-4.09-.95-7.16-2.86-9.21-1.91-2.04-4.48-3.07-7.73-3.07s-5.82,1.03-7.73,3.07c-1.91,2.05-2.86,5.12-2.86,9.21v42.14Z"/><path class="d" d="M467.35,150.78l26.47-54.85-25.2-52.52h22.87l13.34,30.49,13.34-30.49h22.87l-25.62,52.52,26.89,54.85h-22.87l-14.61-32.82-14.61,32.82h-22.87Z"/></g></g></g></svg>